{
  "accessors": [
    {
      "bufferView": 0,
      "componentType": 5126,
      "count": 916,
      "type": "VEC3",
      "max": [
        0.3673819899559021,
        0.65289902687072754,
        0.36738300323486328
      ],
      "min": [
        -0.43511900305747986,
        0.0,
        -0.3673819899559021
      ]
    },
    {
      "bufferView": 1,
      "componentType": 5126,
      "count": 916,
      "type": "VEC3",
      "max": [
        0.9995344877243042,
        1.0,
        0.9995344877243042
      ],
      "min": [
        -0.9995344877243042,
        -0.93169385194778442,
        -0.9995344877243042
      ]
    },
    {
      "bufferView": 2,
      "componentType": 5126,
      "count": 916,
      "type": "VEC4",
      "max": [
        0.99949204921722412,
        0.71300381422042847,
        0.99949204921722412,
        -1.0
      ],
      "min": [
        -0.99949204921722412,
        -0.71337920427322388,
        -0.99949204921722412,
        -1.0
      ]
    },
    {
      "bufferView": 3,
      "componentType": 5126,
      "count": 916,
      "type": "VEC2",
      "max": [
        0.95612901449203491,
        0.84562498331069946
      ],
      "min": [
        0.36156898736953735,
        0.54399198293685913
      ]
    },
    {
      "bufferView": 4,
      "componentType": 5125,
      "count": 3240,
      "type": "SCALAR",
      "max": [
        915.0
      ],
      "min": [
        0.0
      ]
    },
    {
      "bufferView": 5,
      "componentType": 5126,
      "count": 1292,
      "type": "VEC3",
      "max": [
        1.1791011095046997,
        1.8760491609573364,
        1.768950343132019
      ],
      "min": [
        -1.4877654314041138,
        0.013356736861169338,
        -1.7461260557174683
      ]
    },
    {
      "bufferView": 6,
      "componentType": 5126,
      "count": 1292,
      "type": "VEC3",
      "max": [
        0.99923491477966309,
        0.99972158670425415,
        0.99849271774291992
      ],
      "min": [
        -0.99957364797592163,
        -0.95398914813995361,
        -0.99849176406860352
      ]
    },
    {
      "bufferView": 7,
      "componentType": 5126,
      "count": 1292,
      "type": "VEC4",
      "max": [
        0.9969441294670105,
        0.96498745679855347,
        0.99998641014099121,
        1.0
      ],
      "min": [
        -0.99936598539352417,
        -0.99498140811920166,
        -0.99998641014099121,
        -1.0
      ]
    },
    {
      "bufferView": 8,
      "componentType": 5126,
      "count": 1292,
      "type": "VEC2",
      "max": [
        0.44388216733932495,
        0.93368470668792725
      ],
      "min": [
        0.028712838888168335,
        0.066315293312072754
      ]
    },
    {
      "bufferView": 9,
      "componentType": 5126,
      "count": 1292,
      "type": "VEC2",
      "max": [
        0.99759364128112793,
        0.97010636329650879
      ],
      "min": [
        0.00390625,
        0.00390625
      ]
    },
    {
      "bufferView": 10,
      "componentType": 5125,
      "count": 3570,
      "type": "SCALAR",
      "max": [
        1291.0
      ],
      "min": [
        0.0
      ]
    },
    {
      "bufferView": 11,
      "componentType": 5126,
      "count": 10469,
      "type": "VEC3",
      "max": [
        1.5468556880950928,
        4.4822683334350586,
        0.43786871433258057
      ],
      "min": [
        -1.2789762020111084,
        0.0089219985529780388,
        -0.43786442279815674
      ]
    },
    {
      "bufferView": 12,
      "componentType": 5126,
      "count": 10469,
      "type": "VEC3",
      "max": [
        1.0,
        0.99982893466949463,
        1.0
      ],
      "min": [
        -1.0,
        -1.0,
        -1.0
      ]
    },
    {
      "bufferView": 13,
      "componentType": 5126,
      "count": 10469,
      "type": "VEC4",
      "max": [
        0.99999988079071045,
        0.99998927116394043,
        0.99999845027923584,
        1.0
      ],
      "min": [
        -0.99999988079071045,
        -0.92540162801742554,
        -0.99999833106994629,
        -1.0
      ]
    },
    {
      "bufferView": 14,
      "componentType": 5126,
      "count": 10469,
      "type": "VEC2",
      "max": [
        0.93857669830322266,
        0.97415417432785034
      ],
      "min": [
        0.036769002676010132,
        0.053219079971313477
      ]
    },
    {
      "bufferView": 15,
      "componentType": 5126,
      "count": 10469,
      "type": "VEC2",
      "max": [
        0.99813854694366455,
        0.99809771776199341
      ],
      "min": [
        0.00390625,
        0.00390625
      ]
    },
    {
      "bufferView": 16,
      "componentType": 5125,
      "count": 14400,
      "type": "SCALAR",
      "max": [
        9450.0
      ],
      "min": [
        0.0
      ]
    },
    {
      "bufferView": 17,
      "componentType": 5125,
      "count": 3456,
      "type": "SCALAR",
      "max": [
        10468.0
      ],
      "min": [
        9451.0
      ]
    }
  ],
  "asset": {
    "generator": "Plattar UnityGLTF (2020.3.19f1)",
    "version": "2.0"
  },
  "buffers": [
    {
      "uri": "cacti.bin",
      "byteLength": 801248
    }
  ],
  "bufferViews": [
    {
      "buffer": 0,
      "byteLength": 10992
    },
    {
      "buffer": 0,
      "byteOffset": 10992,
      "byteLength": 10992
    },
    {
      "buffer": 0,
      "byteOffset": 21984,
      "byteLength": 14656
    },
    {
      "buffer": 0,
      "byteOffset": 36640,
      "byteLength": 7328
    },
    {
      "buffer": 0,
      "byteOffset": 43968,
      "byteLength": 12960
    },
    {
      "buffer": 0,
      "byteOffset": 56928,
      "byteLength": 15504
    },
    {
      "buffer": 0,
      "byteOffset": 72432,
      "byteLength": 15504
    },
    {
      "buffer": 0,
      "byteOffset": 87936,
      "byteLength": 20672
    },
    {
      "buffer": 0,
      "byteOffset": 108608,
      "byteLength": 10336
    },
    {
      "buffer": 0,
      "byteOffset": 118944,
      "byteLength": 10336
    },
    {
      "buffer": 0,
      "byteOffset": 129280,
      "byteLength": 14280
    },
    {
      "buffer": 0,
      "byteOffset": 143560,
      "byteLength": 125628
    },
    {
      "buffer": 0,
      "byteOffset": 269188,
      "byteLength": 125628
    },
    {
      "buffer": 0,
      "byteOffset": 394816,
      "byteLength": 167504
    },
    {
      "buffer": 0,
      "byteOffset": 562320,
      "byteLength": 83752
    },
    {
      "buffer": 0,
      "byteOffset": 646072,
      "byteLength": 83752
    },
    {
      "buffer": 0,
      "byteOffset": 729824,
      "byteLength": 57600
    },
    {
      "buffer": 0,
      "byteOffset": 787424,
      "byteLength": 13824
    }
  ],
  "images": [
    {
      "uri": "polydesert_atlas.jpg",
      "name": "polydesert_atlas"
    }
  ],
  "materials": [
    {
      "pbrMetallicRoughness": {
        "baseColorFactor": [
          0.8,
          0.8,
          0.8,
          1.0
        ],
        "baseColorTexture": {
          "index": 0
        },
        "metallicFactor": 0.0
      },
      "name": "polydesert_atlas"
    },
    {
      "pbrMetallicRoughness": {
        "baseColorFactor": [
          0.398518622,
          0.6691177,
          0.6131317,
          1.0
        ],
        "metallicFactor": 0.0
      },
      "name": "Aloe"
    },
    {
      "pbrMetallicRoughness": {
        "baseColorFactor": [
          0.8000001,
          0.7265615,
          0.00243029883,
          1.0
        ],
        "metallicFactor": 0.0
      },
      "alphaMode": "BLEND",
      "name": "Thorn"
    },
    {
      "pbrMetallicRoughness": {
        "baseColorFactor": [
          0.09056796,
          0.3108125,
          0.0104291728,
          1.0
        ],
        "metallicFactor": 0.0
      },
      "name": "Cactus"
    }
  ],
  "meshes": [
    {
      "primitives": [
        {
          "attributes": {
            "POSITION": 0,
            "NORMAL": 1,
            "TANGENT": 2,
            "TEXCOORD_0": 3
          },
          "indices": 4,
          "material": 0
        }
      ],
      "name": "default"
    },
    {
      "primitives": [
        {
          "attributes": {
            "POSITION": 5,
            "NORMAL": 6,
            "TANGENT": 7,
            "TEXCOORD_0": 8,
            "TEXCOORD_1": 9
          },
          "indices": 10,
          "material": 1
        }
      ],
      "name": "default"
    },
    {
      "primitives": [
        {
          "attributes": {
            "POSITION": 11,
            "NORMAL": 12,
            "TANGENT": 13,
            "TEXCOORD_0": 14,
            "TEXCOORD_1": 15
          },
          "indices": 16,
          "material": 2
        },
        {
          "attributes": {
            "POSITION": 11,
            "NORMAL": 12,
            "TANGENT": 13,
            "TEXCOORD_0": 14,
            "TEXCOORD_1": 15
          },
          "indices": 17,
          "material": 3
        }
      ],
      "name": "cactus2"
    }
  ],
  "nodes": [
    {
      "children": [
        1,
        3,
        5,
        7,
        9,
        11,
        13,
        15,
        17,
        19,
        21,
        23,
        25,
        27,
        29,
        31,
        33,
        35,
        37,
        39
      ],
      "rotation": [
        0.0,
        0.0,
        0.0,
        -1.0
      ],
      "scale": [
        0.9999998,
        0.9999998,
        0.9999999
      ],
      "translation": [
        -0.09364014,
        0.107245259,
        -0.206223831
      ],
      "name": "cacti"
    },
    {
      "children": [
        2
      ],
      "rotation": [
        0.0,
        0.0,
        0.0,
        -1.0
      ],
      "scale": [
        0.00350000081,
        0.00350000081,
        0.00365000055
      ],
      "translation": [
        0.255975068,
        -0.105527446,
        -0.146894008
      ],
      "name": "cactus03_m"
    },
    {
      "mesh": 0,
      "rotation": [
        0.0,
        0.0,
        0.0,
        -1.0
      ],
      "name": "default"
    },
    {
      "children": [
        4
      ],
      "rotation": [
        0.0,
        0.0,
        0.0,
        -1.0
      ],
      "scale": [
        0.00350000081,
        0.00350000081,
        0.00365000055
      ],
      "translation": [
        0.297426522,
        -0.105007,
        -0.08951389
      ],
      "name": "cactus03_m (1)"
    },
    {
      "mesh": 0,
      "rotation": [
        0.0,
        0.0,
        0.0,
        -1.0
      ],
      "name": "default"
    },
    {
      "children": [
        6
      ],
      "rotation": [
        0.0,
        0.0,
        0.0,
        -1.0
      ],
      "scale": [
        0.00350000081,
        0.00350000081,
        0.00365000055
      ],
      "translation": [
        -0.0672646537,
        -0.1072453,
        0.05686186
      ],
      "name": "cactus03_m (2)"
    },
    {
      "mesh": 0,
      "rotation": [
        0.0,
        0.0,
        0.0,
        -1.0
      ],
      "name": "default"
    },
    {
      "children": [
        8
      ],
      "rotation": [
        0.0,
        0.0,
        0.0,
        -1.0
      ],
      "scale": [
        0.00700000161,
        0.00700000161,
        0.007300001
      ],
      "translation": [
        0.0182473473,
        -0.107245266,
        -0.136876181
      ],
      "name": "Aloe (5)"
    },
    {
      "mesh": 1,
      "rotation": [
        0.0,
        0.0,
        0.0,
        -1.0
      ],
      "name": "default"
    },
    {
      "children": [
        10
      ],
      "rotation": [
        0.0,
        0.0,
        0.0,
        -1.0
      ],
      "scale": [
        0.00350000081,
        0.00350000081,
        0.00365000055
      ],
      "translation": [
        0.0379059352,
        -0.107245266,
        0.04791457
      ],
      "name": "Cactus2 (5)"
    },
    {
      "mesh": 2,
      "rotation": [
        0.0,
        0.0,
        0.0,
        -1.0
      ],
      "name": "cactus2"
    },
    {
      "children": [
        12
      ],
      "rotation": [
        0.0,
        0.0,
        0.0,
        -1.0
      ],
      "scale": [
        0.00350000081,
        0.00350000081,
        0.00365000055
      ],
      "translation": [
        0.06605147,
        -0.107245266,
        0.0594886
      ],
      "name": "Cactus2 (4)"
    },
    {
      "mesh": 2,
      "rotation": [
        0.0,
        0.0,
        0.0,
        -1.0
      ],
      "name": "cactus2"
    },
    {
      "children": [
        14
      ],
      "rotation": [
        0.0,
        0.0,
        0.0,
        -1.0
      ],
      "scale": [
        0.00350000081,
        0.00350000081,
        0.00365000055
      ],
      "translation": [
        0.220931217,
        -0.107245266,
        0.05750594
      ],
      "name": "Cactus2 (3)"
    },
    {
      "mesh": 2,
      "rotation": [
        0.0,
        0.0,
        0.0,
        -1.0
      ],
      "name": "cactus2"
    },
    {
      "children": [
        16
      ],
      "rotation": [
        0.0,
        0.0,
        0.0,
        -1.0
      ],
      "scale": [
        0.00350000081,
        0.00350000081,
        0.00365000055
      ],
      "translation": [
        0.126096651,
        -0.107245266,
        -0.000366148422
      ],
      "name": "Cactus2 (2)"
    },
    {
      "mesh": 2,
      "rotation": [
        0.0,
        0.0,
        0.0,
        -1.0
      ],
      "name": "cactus2"
    },
    {
      "children": [
        18
      ],
      "rotation": [
        0.0,
        0.0,
        0.0,
        -1.0
      ],
      "scale": [
        0.00350000081,
        0.00350000081,
        0.00365000055
      ],
      "translation": [
        0.192808747,
        -0.107245266,
        0.100166805
      ],
      "name": "Cactus2 (1)"
    },
    {
      "mesh": 2,
      "rotation": [
        0.0,
        0.0,
        0.0,
        -1.0
      ],
      "name": "cactus2"
    },
    {
      "children": [
        20
      ],
      "rotation": [
        0.0,
        0.0,
        0.0,
        -1.0
      ],
      "scale": [
        0.00350000081,
        0.00350000081,
        0.00365000055
      ],
      "translation": [
        0.354040176,
        -0.107245266,
        0.1477553
      ],
      "name": "Cactus2"
    },
    {
      "mesh": 2,
      "rotation": [
        0.0,
        0.0,
        0.0,
        -1.0
      ],
      "name": "cactus2"
    },
    {
      "children": [
        22
      ],
      "rotation": [
        0.0,
        0.0,
        0.0,
        -1.0
      ],
      "scale": [
        0.00700000161,
        0.00700000161,
        0.007300001
      ],
      "translation": [
        0.0942423046,
        -0.107245266,
        0.0335541964
      ],
      "name": "Aloe (4)"
    },
    {
      "mesh": 1,
      "rotation": [
        0.0,
        0.0,
        0.0,
        -1.0
      ],
      "name": "default"
    },
    {
      "children": [
        24
      ],
      "rotation": [
        0.0,
        0.0,
        0.0,
        -1.0
      ],
      "scale": [
        0.00700000161,
        0.00700000161,
        0.007300001
      ],
      "translation": [
        0.115562,
        -0.107245266,
        -0.139796183
      ],
      "name": "Aloe (3)"
    },
    {
      "mesh": 1,
      "rotation": [
        0.0,
        0.0,
        0.0,
        -1.0
      ],
      "name": "default"
    },
    {
      "children": [
        26
      ],
      "rotation": [
        0.0,
        0.0,
        0.0,
        -1.0
      ],
      "scale": [
        0.00700000161,
        0.00700000161,
        0.007300001
      ],
      "translation": [
        0.148508325,
        -0.107245266,
        -0.0642411858
      ],
      "name": "Aloe (2)"
    },
    {
      "mesh": 1,
      "rotation": [
        0.0,
        0.0,
        0.0,
        -1.0
      ],
      "name": "default"
    },
    {
      "children": [
        28
      ],
      "rotation": [
        0.0,
        0.0,
        0.0,
        -1.0
      ],
      "scale": [
        0.00700000161,
        0.00700000161,
        0.007300001
      ],
      "translation": [
        0.1994069,
        -0.107245266,
        -0.006571157
      ],
      "name": "Aloe (1)"
    },
    {
      "mesh": 1,
      "rotation": [
        0.0,
        0.0,
        0.0,
        -1.0
      ],
      "name": "default"
    },
    {
      "children": [
        30
      ],
      "rotation": [
        0.0,
        0.0,
        0.0,
        -1.0
      ],
      "scale": [
        0.00700000161,
        0.00700000161,
        0.007300001
      ],
      "translation": [
        0.228007451,
        -0.107245266,
        0.06407411
      ],
      "name": "Aloe"
    },
    {
      "mesh": 1,
      "rotation": [
        0.0,
        0.0,
        0.0,
        -1.0
      ],
      "translation": [
        9.1,
        0.0,
        0.0
      ],
      "name": "default"
    },
    {
      "children": [
        32
      ],
      "rotation": [
        0.0,
        0.0,
        0.0,
        -1.0
      ],
      "scale": [
        0.00700000161,
        0.00700000161,
        0.007300001
      ],
      "translation": [
        0.351736546,
        -0.104316272,
        0.0934990644
      ],
      "name": "Aloe (6)"
    },
    {
      "mesh": 1,
      "rotation": [
        0.0,
        0.0,
        0.0,
        -1.0
      ],
      "name": "default"
    },
    {
      "children": [
        34
      ],
      "rotation": [
        0.0,
        0.0,
        0.0,
        -1.0
      ],
      "scale": [
        0.00350000081,
        0.00350000081,
        0.00365000055
      ],
      "translation": [
        0.33122322,
        -0.103131413,
        -0.0520335846
      ],
      "name": "Cactus2 (6)"
    },
    {
      "mesh": 2,
      "rotation": [
        0.0,
        0.0,
        0.0,
        -1.0
      ],
      "name": "cactus2"
    },
    {
      "children": [
        36
      ],
      "rotation": [
        0.0,
        0.0,
        0.0,
        -1.0
      ],
      "scale": [
        0.00350000081,
        0.00350000081,
        0.00365000055
      ],
      "translation": [
        0.09857526,
        -0.104983382,
        -0.211954787
      ],
      "name": "Cactus2 (7)"
    },
    {
      "mesh": 2,
      "rotation": [
        0.0,
        0.0,
        0.0,
        -1.0
      ],
      "name": "cactus2"
    },
    {
      "children": [
        38
      ],
      "rotation": [
        0.0,
        0.0,
        0.0,
        -1.0
      ],
      "scale": [
        0.00350000081,
        0.00350000081,
        0.00365000055
      ],
      "translation": [
        0.08480318,
        -0.105217338,
        -0.09897979
      ],
      "name": "Cactus2 (8)"
    },
    {
      "mesh": 2,
      "rotation": [
        0.0,
        0.0,
        0.0,
        -1.0
      ],
      "name": "cactus2"
    },
    {
      "children": [
        40
      ],
      "rotation": [
        0.0,
        0.0,
        0.0,
        -1.0
      ],
      "scale": [
        0.00350000081,
        0.00350000081,
        0.00365000055
      ],
      "translation": [
        0.364063442,
        -0.09987871,
        0.235817224
      ],
      "name": "Cactus2 (9)"
    },
    {
      "mesh": 2,
      "rotation": [
        0.0,
        0.0,
        0.0,
        -1.0
      ],
      "name": "cactus2"
    }
  ],
  "samplers": [
    {
      "minFilter": 9729
    }
  ],
  "scene": 0,
  "scenes": [
    {
      "nodes": [
        0
      ],
      "name": "cacti"
    }
  ],
  "textures": [
    {
      "sampler": 0,
      "source": 0,
      "name": "polydesert_atlas"
    }
  ]
}