{
  "accessors": [
    {
      "bufferView": 0,
      "componentType": 5126,
      "count": 164,
      "type": "VEC3",
      "max": [
        0.011001610197126865,
        0.015840942040085793,
        0.0030011767521500587
      ],
      "min": [
        1.6117095356094069E-06,
        -0.00015905618784017861,
        -0.0099988235160708427
      ]
    },
    {
      "bufferView": 1,
      "componentType": 5126,
      "count": 164,
      "type": "VEC3",
      "max": [
        1.0,
        1.0,
        1.0
      ],
      "min": [
        -1.0,
        -1.0,
        -1.0
      ]
    },
    {
      "bufferView": 2,
      "componentType": 5126,
      "count": 164,
      "type": "VEC4",
      "max": [
        1.0,
        0.0,
        0.0,
        -1.0
      ],
      "min": [
        1.0,
        0.0,
        0.0,
        -1.0
      ]
    },
    {
      "bufferView": 3,
      "componentType": 5126,
      "count": 164,
      "type": "VEC2",
      "max": [
        0.99414098262786865,
        0.5
      ],
      "min": [
        0.20898400247097015,
        0.5
      ]
    },
    {
      "bufferView": 4,
      "componentType": 5125,
      "count": 312,
      "type": "SCALAR",
      "max": [
        163.0
      ],
      "min": [
        0.0
      ]
    },
    {
      "bufferView": 5,
      "componentType": 5126,
      "count": 36,
      "type": "VEC3",
      "max": [
        -4.8047304517240264E-06,
        0.00012536167923826724,
        2.4497508093190845E-06
      ],
      "min": [
        -0.0010048061376437545,
        -0.0078746378421783447,
        -0.0059975502081215382
      ]
    },
    {
      "bufferView": 6,
      "componentType": 5126,
      "count": 36,
      "type": "VEC3",
      "max": [
        1.0,
        1.0,
        1.0
      ],
      "min": [
        -1.0,
        -1.0,
        -1.0
      ]
    },
    {
      "bufferView": 7,
      "componentType": 5126,
      "count": 36,
      "type": "VEC4",
      "max": [
        1.0,
        0.0,
        0.0,
        -1.0
      ],
      "min": [
        1.0,
        0.0,
        0.0,
        -1.0
      ]
    },
    {
      "bufferView": 8,
      "componentType": 5126,
      "count": 36,
      "type": "VEC2",
      "max": [
        0.76757800579071045,
        0.5
      ],
      "min": [
        0.76757800579071045,
        0.5
      ]
    },
    {
      "bufferView": 9,
      "componentType": 5125,
      "count": 60,
      "type": "SCALAR",
      "max": [
        35.0
      ],
      "min": [
        0.0
      ]
    },
    {
      "bufferView": 10,
      "componentType": 5126,
      "count": 36,
      "type": "VEC3",
      "max": [
        0.00096436735475435853,
        0.00011024236300727352,
        -2.9802322387695313E-08
      ],
      "min": [
        -3.563284917618148E-05,
        -0.0078897569328546524,
        -0.0060000298544764519
      ]
    },
    {
      "bufferView": 11,
      "componentType": 5126,
      "count": 36,
      "type": "VEC3",
      "max": [
        1.0,
        1.0,
        1.0
      ],
      "min": [
        -1.0,
        -1.0,
        -1.0
      ]
    },
    {
      "bufferView": 12,
      "componentType": 5126,
      "count": 36,
      "type": "VEC4",
      "max": [
        1.0,
        0.0,
        0.0,
        -1.0
      ],
      "min": [
        1.0,
        0.0,
        0.0,
        -1.0
      ]
    },
    {
      "bufferView": 13,
      "componentType": 5126,
      "count": 36,
      "type": "VEC2",
      "max": [
        0.76757800579071045,
        0.5
      ],
      "min": [
        0.76757800579071045,
        0.5
      ]
    },
    {
      "bufferView": 14,
      "componentType": 5125,
      "count": 60,
      "type": "SCALAR",
      "max": [
        35.0
      ],
      "min": [
        0.0
      ]
    },
    {
      "bufferView": 15,
      "componentType": 5126,
      "count": 60,
      "type": "SCALAR",
      "max": [
        1.9666668176651
      ],
      "min": [
        0.0
      ]
    },
    {
      "bufferView": 16,
      "componentType": 5126,
      "count": 60,
      "type": "VEC3",
      "max": [
        -0.55484050512313843,
        0.033365964889526367,
        0.47029650211334229
      ],
      "min": [
        -0.55484050512313843,
        0.019999999552965164,
        0.47029650211334229
      ]
    },
    {
      "bufferView": 17,
      "componentType": 5126,
      "count": 60,
      "type": "VEC4",
      "max": [
        8.1460335366045911E-08,
        0.0,
        0.0,
        1.0
      ],
      "min": [
        8.1460335366045911E-08,
        0.0,
        0.0,
        1.0
      ]
    },
    {
      "bufferView": 18,
      "componentType": 5126,
      "count": 60,
      "type": "VEC3",
      "max": [
        100.0,
        100.0,
        100.0
      ],
      "min": [
        100.0,
        95.488998413085938,
        100.0
      ]
    },
    {
      "bufferView": 19,
      "componentType": 5126,
      "count": 20,
      "type": "SCALAR",
      "max": [
        0.63333338499069214
      ],
      "min": [
        0.0
      ]
    },
    {
      "bufferView": 20,
      "componentType": 5126,
      "count": 20,
      "type": "VEC3",
      "max": [
        -0.38291817903518677,
        0.19974429905414581,
        0.47029650211334229
      ],
      "min": [
        -0.65509676933288574,
        0.035116869956254959,
        0.47029295563697815
      ]
    },
    {
      "bufferView": 21,
      "componentType": 5126,
      "count": 20,
      "type": "VEC4",
      "max": [
        0.0,
        0.0,
        0.10476279258728027,
        1.0
      ],
      "min": [
        0.0,
        0.0,
        -0.067109793424606323,
        0.99449723958969116
      ]
    },
    {
      "bufferView": 22,
      "componentType": 5126,
      "count": 20,
      "type": "VEC3",
      "max": [
        100.0,
        100.0,
        100.0
      ],
      "min": [
        100.0,
        100.0,
        100.0
      ]
    },
    {
      "bufferView": 23,
      "componentType": 5126,
      "count": 20,
      "type": "SCALAR",
      "max": [
        0.63333338499069214
      ],
      "min": [
        0.0
      ]
    },
    {
      "bufferView": 24,
      "componentType": 5126,
      "count": 20,
      "type": "VEC3",
      "max": [
        0.0,
        0.007746460847556591,
        -0.0040012751705944538
      ],
      "min": [
        0.0,
        0.007746460847556591,
        -0.0040012751705944538
      ]
    },
    {
      "bufferView": 25,
      "componentType": 5126,
      "count": 20,
      "type": "VEC4",
      "max": [
        0.0,
        0.0,
        -0.00024434609804302454,
        0.99999994039535522
      ],
      "min": [
        0.0,
        0.0,
        -0.084330029785633087,
        0.99643790721893311
      ]
    },
    {
      "bufferView": 26,
      "componentType": 5126,
      "count": 20,
      "type": "VEC3",
      "max": [
        1.0,
        1.0,
        1.0
      ],
      "min": [
        1.0,
        1.0,
        1.0
      ]
    },
    {
      "bufferView": 27,
      "componentType": 5126,
      "count": 20,
      "type": "SCALAR",
      "max": [
        0.63333338499069214
      ],
      "min": [
        0.0
      ]
    },
    {
      "bufferView": 28,
      "componentType": 5126,
      "count": 20,
      "type": "VEC3",
      "max": [
        0.011037242598831654,
        0.0078094690106809139,
        -0.003998796921223402
      ],
      "min": [
        0.011037242598831654,
        0.0078094690106809139,
        -0.003998796921223402
      ]
    },
    {
      "bufferView": 29,
      "componentType": 5126,
      "count": 20,
      "type": "VEC4",
      "max": [
        0.0,
        0.0,
        0.076196968555450439,
        0.99997889995574951
      ],
      "min": [
        0.0,
        0.0,
        0.0064925793558359146,
        0.99709278345108032
      ]
    },
    {
      "bufferView": 30,
      "componentType": 5126,
      "count": 20,
      "type": "VEC3",
      "max": [
        1.0,
        1.0,
        1.0
      ],
      "min": [
        1.0,
        1.0,
        1.0
      ]
    },
    {
      "bufferView": 31,
      "componentType": 5126,
      "count": 40,
      "type": "SCALAR",
      "max": [
        1.3000000715255737
      ],
      "min": [
        0.0
      ]
    },
    {
      "bufferView": 32,
      "componentType": 5126,
      "count": 40,
      "type": "VEC3",
      "max": [
        0.011037242598831654,
        0.0078094690106809139,
        -0.003998796921223402
      ],
      "min": [
        0.011037242598831654,
        0.0078094690106809139,
        -0.003998796921223402
      ]
    },
    {
      "bufferView": 33,
      "componentType": 5126,
      "count": 40,
      "type": "VEC4",
      "max": [
        0.0,
        0.0,
        0.22180379927158356,
        0.99997889995574951
      ],
      "min": [
        0.0,
        0.0,
        0.0064925793558359146,
        0.97509133815765381
      ]
    },
    {
      "bufferView": 34,
      "componentType": 5126,
      "count": 40,
      "type": "VEC3",
      "max": [
        1.0,
        1.0,
        1.0
      ],
      "min": [
        1.0,
        1.0,
        1.0
      ]
    },
    {
      "bufferView": 35,
      "componentType": 5126,
      "count": 40,
      "type": "SCALAR",
      "max": [
        1.3000000715255737
      ],
      "min": [
        0.0
      ]
    },
    {
      "bufferView": 36,
      "componentType": 5126,
      "count": 40,
      "type": "VEC3",
      "max": [
        0.0,
        0.007746460847556591,
        -0.0040012751705944538
      ],
      "min": [
        0.0,
        0.007746460847556591,
        -0.0040012751705944538
      ]
    },
    {
      "bufferView": 37,
      "componentType": 5126,
      "count": 40,
      "type": "VEC4",
      "max": [
        0.0,
        0.0,
        -0.015846926718950272,
        0.99987441301345825
      ],
      "min": [
        0.0,
        0.0,
        -0.29266378283500671,
        0.95621544122695923
      ]
    },
    {
      "bufferView": 38,
      "componentType": 5126,
      "count": 40,
      "type": "VEC3",
      "max": [
        1.0,
        1.0,
        1.0
      ],
      "min": [
        1.0,
        1.0,
        1.0
      ]
    },
    {
      "bufferView": 39,
      "componentType": 5126,
      "count": 40,
      "type": "SCALAR",
      "max": [
        1.3000000715255737
      ],
      "min": [
        0.0
      ]
    },
    {
      "bufferView": 40,
      "componentType": 5126,
      "count": 40,
      "type": "VEC3",
      "max": [
        -0.55483925342559814,
        0.033365964889526367,
        0.47029650211334229
      ],
      "min": [
        -0.55484050512313843,
        -0.027440104633569717,
        0.37684395909309387
      ]
    },
    {
      "bufferView": 41,
      "componentType": 5126,
      "count": 40,
      "type": "VEC4",
      "max": [
        0.057267814874649048,
        0.0,
        0.0,
        1.0
      ],
      "min": [
        0.0,
        0.0,
        0.0,
        0.99835884571075439
      ]
    },
    {
      "bufferView": 42,
      "componentType": 5126,
      "count": 40,
      "type": "VEC3",
      "max": [
        100.0,
        100.0,
        100.0
      ],
      "min": [
        100.0,
        100.0,
        100.0
      ]
    }
  ],
  "animations": [
    {
      "channels": [
        {
          "sampler": 0,
          "target": {
            "node": 1,
            "path": "translation"
          }
        },
        {
          "sampler": 1,
          "target": {
            "node": 1,
            "path": "rotation"
          }
        },
        {
          "sampler": 2,
          "target": {
            "node": 1,
            "path": "scale"
          }
        }
      ],
      "samplers": [
        {
          "input": 15,
          "output": 16
        },
        {
          "input": 15,
          "output": 17
        },
        {
          "input": 15,
          "output": 18
        }
      ],
      "name": "Penguin_single"
    },
    {
      "channels": [
        {
          "sampler": 0,
          "target": {
            "node": 1,
            "path": "translation"
          }
        },
        {
          "sampler": 1,
          "target": {
            "node": 1,
            "path": "rotation"
          }
        },
        {
          "sampler": 2,
          "target": {
            "node": 1,
            "path": "scale"
          }
        },
        {
          "sampler": 3,
          "target": {
            "node": 2,
            "path": "translation"
          }
        },
        {
          "sampler": 4,
          "target": {
            "node": 2,
            "path": "rotation"
          }
        },
        {
          "sampler": 5,
          "target": {
            "node": 2,
            "path": "scale"
          }
        },
        {
          "sampler": 6,
          "target": {
            "node": 3,
            "path": "translation"
          }
        },
        {
          "sampler": 7,
          "target": {
            "node": 3,
            "path": "rotation"
          }
        },
        {
          "sampler": 8,
          "target": {
            "node": 3,
            "path": "scale"
          }
        }
      ],
      "samplers": [
        {
          "input": 19,
          "output": 20
        },
        {
          "input": 19,
          "output": 21
        },
        {
          "input": 19,
          "output": 22
        },
        {
          "input": 23,
          "output": 24
        },
        {
          "input": 23,
          "output": 25
        },
        {
          "input": 23,
          "output": 26
        },
        {
          "input": 27,
          "output": 28
        },
        {
          "input": 27,
          "output": 29
        },
        {
          "input": 27,
          "output": 30
        }
      ],
      "name": "Penguin_single"
    },
    {
      "channels": [
        {
          "sampler": 0,
          "target": {
            "node": 3,
            "path": "translation"
          }
        },
        {
          "sampler": 1,
          "target": {
            "node": 3,
            "path": "rotation"
          }
        },
        {
          "sampler": 2,
          "target": {
            "node": 3,
            "path": "scale"
          }
        },
        {
          "sampler": 3,
          "target": {
            "node": 2,
            "path": "translation"
          }
        },
        {
          "sampler": 4,
          "target": {
            "node": 2,
            "path": "rotation"
          }
        },
        {
          "sampler": 5,
          "target": {
            "node": 2,
            "path": "scale"
          }
        },
        {
          "sampler": 6,
          "target": {
            "node": 1,
            "path": "translation"
          }
        },
        {
          "sampler": 7,
          "target": {
            "node": 1,
            "path": "rotation"
          }
        },
        {
          "sampler": 8,
          "target": {
            "node": 1,
            "path": "scale"
          }
        }
      ],
      "samplers": [
        {
          "input": 31,
          "output": 32
        },
        {
          "input": 31,
          "output": 33
        },
        {
          "input": 31,
          "output": 34
        },
        {
          "input": 35,
          "output": 36
        },
        {
          "input": 35,
          "output": 37
        },
        {
          "input": 35,
          "output": 38
        },
        {
          "input": 39,
          "output": 40
        },
        {
          "input": 39,
          "output": 41
        },
        {
          "input": 39,
          "output": 42
        }
      ],
      "name": "Penguin_single"
    }
  ],
  "asset": {
    "generator": "Plattar UnityGLTF (2020.3.19f1)",
    "version": "2.0"
  },
  "buffers": [
    {
      "uri": "Penguin_single.bin",
      "byteLength": 23616
    }
  ],
  "bufferViews": [
    {
      "buffer": 0,
      "byteLength": 1968
    },
    {
      "buffer": 0,
      "byteOffset": 1968,
      "byteLength": 1968
    },
    {
      "buffer": 0,
      "byteOffset": 3936,
      "byteLength": 2624
    },
    {
      "buffer": 0,
      "byteOffset": 6560,
      "byteLength": 1312
    },
    {
      "buffer": 0,
      "byteOffset": 7872,
      "byteLength": 1248
    },
    {
      "buffer": 0,
      "byteOffset": 9120,
      "byteLength": 432
    },
    {
      "buffer": 0,
      "byteOffset": 9552,
      "byteLength": 432
    },
    {
      "buffer": 0,
      "byteOffset": 9984,
      "byteLength": 576
    },
    {
      "buffer": 0,
      "byteOffset": 10560,
      "byteLength": 288
    },
    {
      "buffer": 0,
      "byteOffset": 10848,
      "byteLength": 240
    },
    {
      "buffer": 0,
      "byteOffset": 11088,
      "byteLength": 432
    },
    {
      "buffer": 0,
      "byteOffset": 11520,
      "byteLength": 432
    },
    {
      "buffer": 0,
      "byteOffset": 11952,
      "byteLength": 576
    },
    {
      "buffer": 0,
      "byteOffset": 12528,
      "byteLength": 288
    },
    {
      "buffer": 0,
      "byteOffset": 12816,
      "byteLength": 240
    },
    {
      "buffer": 0,
      "byteOffset": 13056,
      "byteLength": 240
    },
    {
      "buffer": 0,
      "byteOffset": 13296,
      "byteLength": 720
    },
    {
      "buffer": 0,
      "byteOffset": 14016,
      "byteLength": 960
    },
    {
      "buffer": 0,
      "byteOffset": 14976,
      "byteLength": 720
    },
    {
      "buffer": 0,
      "byteOffset": 15696,
      "byteLength": 80
    },
    {
      "buffer": 0,
      "byteOffset": 15776,
      "byteLength": 240
    },
    {
      "buffer": 0,
      "byteOffset": 16016,
      "byteLength": 320
    },
    {
      "buffer": 0,
      "byteOffset": 16336,
      "byteLength": 240
    },
    {
      "buffer": 0,
      "byteOffset": 16576,
      "byteLength": 80
    },
    {
      "buffer": 0,
      "byteOffset": 16656,
      "byteLength": 240
    },
    {
      "buffer": 0,
      "byteOffset": 16896,
      "byteLength": 320
    },
    {
      "buffer": 0,
      "byteOffset": 17216,
      "byteLength": 240
    },
    {
      "buffer": 0,
      "byteOffset": 17456,
      "byteLength": 80
    },
    {
      "buffer": 0,
      "byteOffset": 17536,
      "byteLength": 240
    },
    {
      "buffer": 0,
      "byteOffset": 17776,
      "byteLength": 320
    },
    {
      "buffer": 0,
      "byteOffset": 18096,
      "byteLength": 240
    },
    {
      "buffer": 0,
      "byteOffset": 18336,
      "byteLength": 160
    },
    {
      "buffer": 0,
      "byteOffset": 18496,
      "byteLength": 480
    },
    {
      "buffer": 0,
      "byteOffset": 18976,
      "byteLength": 640
    },
    {
      "buffer": 0,
      "byteOffset": 19616,
      "byteLength": 480
    },
    {
      "buffer": 0,
      "byteOffset": 20096,
      "byteLength": 160
    },
    {
      "buffer": 0,
      "byteOffset": 20256,
      "byteLength": 480
    },
    {
      "buffer": 0,
      "byteOffset": 20736,
      "byteLength": 640
    },
    {
      "buffer": 0,
      "byteOffset": 21376,
      "byteLength": 480
    },
    {
      "buffer": 0,
      "byteOffset": 21856,
      "byteLength": 160
    },
    {
      "buffer": 0,
      "byteOffset": 22016,
      "byteLength": 480
    },
    {
      "buffer": 0,
      "byteOffset": 22496,
      "byteLength": 640
    },
    {
      "buffer": 0,
      "byteOffset": 23136,
      "byteLength": 480
    }
  ],
  "images": [
    {
      "uri": "Palette.png",
      "name": "Palette"
    }
  ],
  "materials": [
    {
      "pbrMetallicRoughness": {
        "baseColorTexture": {
          "index": 0
        },
        "metallicFactor": 0.0,
        "roughnessFactor": 0.5
      },
      "name": "Palette"
    }
  ],
  "meshes": [
    {
      "primitives": [
        {
          "attributes": {
            "POSITION": 0,
            "NORMAL": 1,
            "TANGENT": 2,
            "TEXCOORD_0": 3
          },
          "indices": 4,
          "material": 0
        }
      ],
      "name": "Body"
    },
    {
      "primitives": [
        {
          "attributes": {
            "POSITION": 5,
            "NORMAL": 6,
            "TANGENT": 7,
            "TEXCOORD_0": 8
          },
          "indices": 9,
          "material": 0
        }
      ],
      "name": "WingL"
    },
    {
      "primitives": [
        {
          "attributes": {
            "POSITION": 10,
            "NORMAL": 11,
            "TANGENT": 12,
            "TEXCOORD_0": 13
          },
          "indices": 14,
          "material": 0
        }
      ],
      "name": "WingR"
    }
  ],
  "nodes": [
    {
      "children": [
        1
      ],
      "rotation": [
        0.0,
        -0.929528,
        0.0,
        -0.368751526
      ],
      "scale": [
        0.040508002,
        0.040508,
        0.040508002
      ],
      "translation": [
        0.103,
        0.001,
        -0.252
      ],
      "name": "Penguin_single"
    },
    {
      "children": [
        2,
        3
      ],
      "mesh": 0,
      "rotation": [
        8.14603354E-08,
        0.0,
        0.0,
        -1.0
      ],
      "scale": [
        100.0,
        100.0,
        100.0
      ],
      "translation": [
        -0.5548405,
        0.0333659649,
        -0.4702965
      ],
      "name": "Body"
    },
    {
      "mesh": 1,
      "rotation": [
        -7.819048E-08,
        -1.29082378E-09,
        0.01584604,
        -0.9998745
      ],
      "translation": [
        0.0,
        0.007746461,
        0.004001275
      ],
      "name": "WingL"
    },
    {
      "mesh": 2,
      "rotation": [
        -8.51839062E-08,
        3.03314422E-08,
        -0.006495401,
        -0.9999789
      ],
      "translation": [
        0.0110372426,
        0.007809469,
        0.003998797
      ],
      "name": "WingR"
    }
  ],
  "samplers": [
    {
      "minFilter": 9729
    }
  ],
  "scene": 0,
  "scenes": [
    {
      "nodes": [
        0
      ],
      "name": "Penguin_single"
    }
  ],
  "textures": [
    {
      "sampler": 0,
      "source": 0,
      "name": "Palette"
    }
  ]
}